<mxfile host="app.diagrams.net" modified="2021-04-16T09:50:35.411Z" agent="5.0 (Windows NT 10.0; Win64; x64) AppleWebKit/537.36 (KHTML, like Gecko) Chrome/89.0.4389.128 Safari/537.36" etag="xQuAwNpTrHJhEo4L_w6e" version="14.6.1" type="github">
  <diagram id="SuNVphhk_r-dVFvO_X8W" name="Page-1">
    <mxGraphModel dx="870" dy="535" grid="1" gridSize="10" guides="1" tooltips="1" connect="1" arrows="1" fold="1" page="1" pageScale="1" pageWidth="827" pageHeight="1169" math="1" shadow="0">
      <root>
        <mxCell id="0" />
        <mxCell id="1" parent="0" />
        <mxCell id="hj8D2mjoaMXsEgfOs6C1-46" value="" style="rounded=0;whiteSpace=wrap;html=1;fontFamily=Noto Sans;fontSource=https%3A%2F%2Ffonts.googleapis.com%2Fcss%3Ffamily%3DNoto%2BSans;fontSize=16;fillColor=#ffffff;align=left;strokeWidth=3;" vertex="1" parent="1">
          <mxGeometry x="660" y="1060" width="160" height="100" as="geometry" />
        </mxCell>
        <mxCell id="-FZ3qA6GbJ0KDv9lzx8t-1" value="Differentiation" style="text;html=1;strokeColor=none;fillColor=none;align=left;verticalAlign=middle;whiteSpace=wrap;rounded=0;fontFamily=Noto Sans;fontSource=https%3A%2F%2Ffonts.googleapis.com%2Fcss%3Ffamily%3DNoto%2BSans;fontStyle=1;fontSize=48;" parent="1" vertex="1">
          <mxGeometry x="40" y="54" width="560" height="20" as="geometry" />
        </mxCell>
        <mxCell id="-FZ3qA6GbJ0KDv9lzx8t-2" value="" style="endArrow=none;html=1;fontSize=48;strokeWidth=9;" parent="1" edge="1">
          <mxGeometry width="50" height="50" relative="1" as="geometry">
            <mxPoint x="30" y="84" as="sourcePoint" />
            <mxPoint x="30" y="19" as="targetPoint" />
          </mxGeometry>
        </mxCell>
        <mxCell id="-FZ3qA6GbJ0KDv9lzx8t-3" value="" style="endArrow=none;html=1;fontSize=48;strokeWidth=1;" parent="1" edge="1">
          <mxGeometry width="50" height="50" relative="1" as="geometry">
            <mxPoint x="30" y="20" as="sourcePoint" />
            <mxPoint x="380" y="20" as="targetPoint" />
          </mxGeometry>
        </mxCell>
        <mxCell id="-FZ3qA6GbJ0KDv9lzx8t-14" style="edgeStyle=orthogonalEdgeStyle;rounded=0;orthogonalLoop=1;jettySize=auto;html=1;exitX=0.5;exitY=1;exitDx=0;exitDy=0;entryX=0.5;entryY=0;entryDx=0;entryDy=0;fontSize=16;strokeWidth=1;" parent="1" source="-FZ3qA6GbJ0KDv9lzx8t-4" target="-FZ3qA6GbJ0KDv9lzx8t-8" edge="1">
          <mxGeometry relative="1" as="geometry" />
        </mxCell>
        <mxCell id="-FZ3qA6GbJ0KDv9lzx8t-4" value="&lt;font face=&quot;Noto Sans&quot; style=&quot;font-size: 16px;&quot;&gt;Remove brackets&lt;/font&gt;" style="rounded=0;whiteSpace=wrap;html=1;fontSize=16;align=center;" parent="1" vertex="1">
          <mxGeometry x="40" y="180" width="150" height="30" as="geometry" />
        </mxCell>
        <mxCell id="-FZ3qA6GbJ0KDv9lzx8t-13" style="edgeStyle=orthogonalEdgeStyle;rounded=0;orthogonalLoop=1;jettySize=auto;html=1;exitX=0.5;exitY=1;exitDx=0;exitDy=0;entryX=0.5;entryY=0;entryDx=0;entryDy=0;fontSize=16;strokeWidth=1;" parent="1" source="-FZ3qA6GbJ0KDv9lzx8t-6" target="-FZ3qA6GbJ0KDv9lzx8t-4" edge="1">
          <mxGeometry relative="1" as="geometry" />
        </mxCell>
        <mxCell id="-FZ3qA6GbJ0KDv9lzx8t-6" value="To differentiate" style="rounded=1;whiteSpace=wrap;html=1;fontSize=16;align=center;arcSize=50;" parent="1" vertex="1">
          <mxGeometry x="40" y="120" width="150" height="30" as="geometry" />
        </mxCell>
        <mxCell id="-FZ3qA6GbJ0KDv9lzx8t-15" style="edgeStyle=orthogonalEdgeStyle;rounded=0;orthogonalLoop=1;jettySize=auto;html=1;exitX=0.5;exitY=1;exitDx=0;exitDy=0;entryX=0.5;entryY=0;entryDx=0;entryDy=0;fontSize=16;strokeWidth=1;" parent="1" source="-FZ3qA6GbJ0KDv9lzx8t-8" target="-FZ3qA6GbJ0KDv9lzx8t-9" edge="1">
          <mxGeometry relative="1" as="geometry" />
        </mxCell>
        <mxCell id="-FZ3qA6GbJ0KDv9lzx8t-8" value="&lt;font face=&quot;Noto Sans&quot; style=&quot;font-size: 16px&quot;&gt;Separate top heavy fractions&lt;/font&gt;" style="rounded=0;whiteSpace=wrap;html=1;fontSize=16;align=center;" parent="1" vertex="1">
          <mxGeometry x="40" y="240" width="150" height="50" as="geometry" />
        </mxCell>
        <mxCell id="-FZ3qA6GbJ0KDv9lzx8t-16" style="edgeStyle=orthogonalEdgeStyle;rounded=0;orthogonalLoop=1;jettySize=auto;html=1;exitX=0.5;exitY=1;exitDx=0;exitDy=0;entryX=0.5;entryY=0;entryDx=0;entryDy=0;fontSize=16;strokeWidth=1;" parent="1" source="-FZ3qA6GbJ0KDv9lzx8t-9" target="-FZ3qA6GbJ0KDv9lzx8t-10" edge="1">
          <mxGeometry relative="1" as="geometry" />
        </mxCell>
        <mxCell id="-FZ3qA6GbJ0KDv9lzx8t-9" value="&lt;font face=&quot;Noto Sans&quot; style=&quot;font-size: 16px&quot;&gt;Change terms involving roots to fractional powers&lt;/font&gt;" style="rounded=0;whiteSpace=wrap;html=1;fontSize=16;align=center;" parent="1" vertex="1">
          <mxGeometry x="40" y="320" width="150" height="70" as="geometry" />
        </mxCell>
        <mxCell id="-FZ3qA6GbJ0KDv9lzx8t-17" style="edgeStyle=orthogonalEdgeStyle;rounded=0;orthogonalLoop=1;jettySize=auto;html=1;exitX=0.5;exitY=1;exitDx=0;exitDy=0;entryX=0.5;entryY=0;entryDx=0;entryDy=0;fontSize=16;strokeWidth=1;" parent="1" source="-FZ3qA6GbJ0KDv9lzx8t-10" target="-FZ3qA6GbJ0KDv9lzx8t-11" edge="1">
          <mxGeometry relative="1" as="geometry" />
        </mxCell>
        <mxCell id="-FZ3qA6GbJ0KDv9lzx8t-10" value="&lt;font face=&quot;Noto Sans&quot; style=&quot;font-size: 16px&quot;&gt;Change terms with &lt;/font&gt;&lt;font style=&quot;font-size: 16px&quot; face=&quot;Georgia&quot;&gt;&lt;i&gt;x&lt;/i&gt;&lt;/font&gt;&lt;font face=&quot;Noto Sans&quot; style=&quot;font-size: 16px&quot;&gt; in the denominator to negative powers&lt;/font&gt;" style="rounded=0;whiteSpace=wrap;html=1;fontSize=16;align=center;" parent="1" vertex="1">
          <mxGeometry x="40" y="420" width="150" height="90" as="geometry" />
        </mxCell>
        <mxCell id="-FZ3qA6GbJ0KDv9lzx8t-18" style="edgeStyle=orthogonalEdgeStyle;rounded=0;orthogonalLoop=1;jettySize=auto;html=1;exitX=0.5;exitY=1;exitDx=0;exitDy=0;entryX=0.5;entryY=0;entryDx=0;entryDy=0;fontSize=16;strokeWidth=1;" parent="1" source="-FZ3qA6GbJ0KDv9lzx8t-11" target="-FZ3qA6GbJ0KDv9lzx8t-12" edge="1">
          <mxGeometry relative="1" as="geometry" />
        </mxCell>
        <mxCell id="-FZ3qA6GbJ0KDv9lzx8t-11" value="&lt;font face=&quot;Noto Sans&quot;&gt;Bring down power to in front of the &lt;/font&gt;&lt;font face=&quot;Georgia&quot;&gt;&lt;i&gt;x&lt;/i&gt;&lt;/font&gt;" style="rounded=0;whiteSpace=wrap;html=1;fontSize=16;align=center;" parent="1" vertex="1">
          <mxGeometry x="40" y="539.5" width="150" height="50.5" as="geometry" />
        </mxCell>
        <mxCell id="hj8D2mjoaMXsEgfOs6C1-9" style="edgeStyle=orthogonalEdgeStyle;rounded=0;orthogonalLoop=1;jettySize=auto;html=1;exitX=0.5;exitY=1;exitDx=0;exitDy=0;entryX=0.5;entryY=0;entryDx=0;entryDy=0;fontFamily=Georgia;fontSize=16;" edge="1" parent="1" source="-FZ3qA6GbJ0KDv9lzx8t-12" target="hj8D2mjoaMXsEgfOs6C1-8">
          <mxGeometry relative="1" as="geometry" />
        </mxCell>
        <mxCell id="-FZ3qA6GbJ0KDv9lzx8t-12" value="&lt;font face=&quot;Noto Sans&quot;&gt;Decrease the power by &lt;/font&gt;&lt;font face=&quot;Georgia&quot;&gt;&lt;i&gt;1&lt;/i&gt;&lt;/font&gt;" style="rounded=0;whiteSpace=wrap;html=1;fontSize=16;align=center;" parent="1" vertex="1">
          <mxGeometry x="40" y="620" width="150" height="50" as="geometry" />
        </mxCell>
        <mxCell id="hj8D2mjoaMXsEgfOs6C1-1" value="&lt;font style=&quot;font-size: 16px&quot;&gt;End&lt;/font&gt;" style="rounded=1;whiteSpace=wrap;html=1;arcSize=50;" vertex="1" parent="1">
          <mxGeometry x="40" y="780" width="150" height="30" as="geometry" />
        </mxCell>
        <mxCell id="hj8D2mjoaMXsEgfOs6C1-3" value="$$-\frac{1}{2}\times 4x^{-\frac{1}{2}}$$" style="text;html=1;strokeColor=none;fillColor=none;align=center;verticalAlign=middle;whiteSpace=wrap;rounded=0;fontFamily=Georgia;fontStyle=2;fontSize=16;" vertex="1" parent="1">
          <mxGeometry x="250" y="549.75" width="120" height="30" as="geometry" />
        </mxCell>
        <mxCell id="hj8D2mjoaMXsEgfOs6C1-4" value="$$\frac{4}{\sqrt{x}}$$" style="text;html=1;strokeColor=none;fillColor=none;align=center;verticalAlign=middle;whiteSpace=wrap;rounded=0;fontFamily=Georgia;fontStyle=2;fontSize=16;" vertex="1" parent="1">
          <mxGeometry x="250" y="115" width="120" height="40" as="geometry" />
        </mxCell>
        <mxCell id="hj8D2mjoaMXsEgfOs6C1-6" value="$$4x^{-\frac{1}{2}}$$" style="text;html=1;strokeColor=none;fillColor=none;align=center;verticalAlign=middle;whiteSpace=wrap;rounded=0;fontFamily=Georgia;fontStyle=2;fontSize=16;" vertex="1" parent="1">
          <mxGeometry x="250" y="450" width="120" height="30" as="geometry" />
        </mxCell>
        <mxCell id="hj8D2mjoaMXsEgfOs6C1-7" value="$$-\frac{1}{2}\times 4x^{-\frac{3}{2}}$$" style="text;html=1;strokeColor=none;fillColor=none;align=center;verticalAlign=middle;whiteSpace=wrap;rounded=0;fontFamily=Georgia;fontStyle=2;fontSize=16;" vertex="1" parent="1">
          <mxGeometry x="250" y="630" width="120" height="30" as="geometry" />
        </mxCell>
        <mxCell id="hj8D2mjoaMXsEgfOs6C1-10" style="edgeStyle=orthogonalEdgeStyle;rounded=0;orthogonalLoop=1;jettySize=auto;html=1;exitX=0.5;exitY=1;exitDx=0;exitDy=0;entryX=0.5;entryY=0;entryDx=0;entryDy=0;fontFamily=Georgia;fontSize=16;" edge="1" parent="1" source="hj8D2mjoaMXsEgfOs6C1-8" target="hj8D2mjoaMXsEgfOs6C1-1">
          <mxGeometry relative="1" as="geometry" />
        </mxCell>
        <mxCell id="hj8D2mjoaMXsEgfOs6C1-8" value="&lt;font face=&quot;Noto Sans&quot;&gt;Simplify, if needed&lt;/font&gt;" style="rounded=0;whiteSpace=wrap;html=1;fontSize=16;align=center;" vertex="1" parent="1">
          <mxGeometry x="40" y="700" width="150" height="50" as="geometry" />
        </mxCell>
        <mxCell id="hj8D2mjoaMXsEgfOs6C1-11" value="$$\frac{-2}{\sqrt[2]{x^3}}$$" style="text;html=1;strokeColor=none;fillColor=none;align=center;verticalAlign=middle;whiteSpace=wrap;rounded=0;fontFamily=Georgia;fontStyle=2;fontSize=16;" vertex="1" parent="1">
          <mxGeometry x="250" y="710" width="120" height="30" as="geometry" />
        </mxCell>
        <mxCell id="hj8D2mjoaMXsEgfOs6C1-12" value="" style="rounded=0;whiteSpace=wrap;html=1;fontFamily=Georgia;fontSize=16;fillColor=none;" vertex="1" parent="1">
          <mxGeometry x="250" y="105" width="120" height="705" as="geometry" />
        </mxCell>
        <mxCell id="hj8D2mjoaMXsEgfOs6C1-13" value="Example" style="text;html=1;strokeColor=none;fillColor=none;align=center;verticalAlign=middle;whiteSpace=wrap;rounded=0;fontFamily=Noto Sans;fontSize=11;fontSource=https%3A%2F%2Ffonts.googleapis.com%2Fcss%3Ffamily%3DNoto%2BSans;horizontal=1;rotation=-90;" vertex="1" parent="1">
          <mxGeometry x="220" y="115" width="40" height="20" as="geometry" />
        </mxCell>
        <mxCell id="hj8D2mjoaMXsEgfOs6C1-14" value="&lt;b style=&quot;font-size: 16px;&quot;&gt;Differentiation&lt;/b&gt; is used to calculate rates of change" style="rounded=0;whiteSpace=wrap;html=1;fontFamily=Noto Sans;fontSource=https%3A%2F%2Ffonts.googleapis.com%2Fcss%3Ffamily%3DNoto%2BSans;fontSize=16;align=left;" vertex="1" parent="1">
          <mxGeometry x="414" y="20" width="386" height="30" as="geometry" />
        </mxCell>
        <mxCell id="hj8D2mjoaMXsEgfOs6C1-15" value="It could be used to calculate speed in distance-time graphs" style="rounded=0;whiteSpace=wrap;html=1;fontFamily=Noto Sans;fontSource=https%3A%2F%2Ffonts.googleapis.com%2Fcss%3Ffamily%3DNoto%2BSans;fontSize=16;align=left;" vertex="1" parent="1">
          <mxGeometry x="414" y="55" width="386" height="50" as="geometry" />
        </mxCell>
        <mxCell id="hj8D2mjoaMXsEgfOs6C1-16" value="Notation&lt;br&gt;- \(f&#39;(x)\)&lt;br&gt;- \(\frac{dy}{dx}\)&lt;br&gt;- Calculate the rate of change&lt;br&gt;- Find the derivative of&lt;br&gt;- Calculate the gradient of the tangent to the curve" style="rounded=0;whiteSpace=wrap;html=1;fontFamily=Noto Sans;fontSource=https%3A%2F%2Ffonts.googleapis.com%2Fcss%3Ffamily%3DNoto%2BSans;fontSize=16;align=left;verticalAlign=top;" vertex="1" parent="1">
          <mxGeometry x="414" y="110" width="386" height="140" as="geometry" />
        </mxCell>
        <mxCell id="hj8D2mjoaMXsEgfOs6C1-17" value="General Rule&lt;br&gt;$$f(x)=ax^n \rightarrow f&#39;(x)=nax^{n-1}$$" style="rounded=0;whiteSpace=wrap;html=1;fontFamily=Noto Sans;fontSource=https%3A%2F%2Ffonts.googleapis.com%2Fcss%3Ffamily%3DNoto%2BSans;fontSize=16;align=left;spacing=1;spacingBottom=-11;" vertex="1" parent="1">
          <mxGeometry x="414" y="255" width="386" height="70" as="geometry" />
        </mxCell>
        <mxCell id="hj8D2mjoaMXsEgfOs6C1-18" value="The Chain Rule" style="text;html=1;strokeColor=none;fillColor=none;align=left;verticalAlign=middle;whiteSpace=wrap;rounded=0;fontFamily=Noto Sans;fontSource=https%3A%2F%2Ffonts.googleapis.com%2Fcss%3Ffamily%3DNoto%2BSans;fontSize=28;" vertex="1" parent="1">
          <mxGeometry x="414" y="350" width="256" height="20" as="geometry" />
        </mxCell>
        <mxCell id="hj8D2mjoaMXsEgfOs6C1-19" value="" style="endArrow=none;html=1;fontFamily=Noto Sans;fontSource=https%3A%2F%2Ffonts.googleapis.com%2Fcss%3Ffamily%3DNoto%2BSans;fontSize=28;strokeWidth=4;" edge="1" parent="1">
          <mxGeometry width="50" height="50" relative="1" as="geometry">
            <mxPoint x="390" y="340" as="sourcePoint" />
            <mxPoint x="800" y="340" as="targetPoint" />
          </mxGeometry>
        </mxCell>
        <mxCell id="hj8D2mjoaMXsEgfOs6C1-20" value="" style="endArrow=none;html=1;fontFamily=Noto Sans;fontSource=https%3A%2F%2Ffonts.googleapis.com%2Fcss%3Ffamily%3DNoto%2BSans;fontSize=28;strokeWidth=2;" edge="1" parent="1">
          <mxGeometry width="50" height="50" relative="1" as="geometry">
            <mxPoint x="390" y="880" as="sourcePoint" />
            <mxPoint x="390" y="340" as="targetPoint" />
          </mxGeometry>
        </mxCell>
        <mxCell id="hj8D2mjoaMXsEgfOs6C1-21" value="Used to differentiate composite functions" style="text;html=1;strokeColor=none;fillColor=none;align=left;verticalAlign=middle;whiteSpace=wrap;rounded=0;fontFamily=Noto Sans;fontSource=https%3A%2F%2Ffonts.googleapis.com%2Fcss%3Ffamily%3DNoto%2BSans;fontSize=16;" vertex="1" parent="1">
          <mxGeometry x="414" y="380" width="326" height="20" as="geometry" />
        </mxCell>
        <mxCell id="hj8D2mjoaMXsEgfOs6C1-22" value="$$\frac{dy}{dx}=\frac{dy}{du}\times \frac{du}{dx}$$" style="text;html=1;strokeColor=none;fillColor=none;align=center;verticalAlign=middle;whiteSpace=wrap;rounded=0;fontFamily=Noto Sans;fontSource=https%3A%2F%2Ffonts.googleapis.com%2Fcss%3Ffamily%3DNoto%2BSans;fontSize=16;" vertex="1" parent="1">
          <mxGeometry x="414" y="420" width="146" height="20" as="geometry" />
        </mxCell>
        <mxCell id="hj8D2mjoaMXsEgfOs6C1-30" style="edgeStyle=orthogonalEdgeStyle;rounded=0;orthogonalLoop=1;jettySize=auto;html=1;exitX=0.5;exitY=1;exitDx=0;exitDy=0;entryX=0.5;entryY=0;entryDx=0;entryDy=0;fontFamily=Noto Sans;fontSource=https%3A%2F%2Ffonts.googleapis.com%2Fcss%3Ffamily%3DNoto%2BSans;fontSize=16;strokeWidth=2;" edge="1" parent="1" source="hj8D2mjoaMXsEgfOs6C1-24" target="hj8D2mjoaMXsEgfOs6C1-25">
          <mxGeometry relative="1" as="geometry" />
        </mxCell>
        <mxCell id="hj8D2mjoaMXsEgfOs6C1-24" value="$$y=(2x+4)^3$$" style="rounded=0;whiteSpace=wrap;html=1;fontFamily=Noto Sans;fontSource=https%3A%2F%2Ffonts.googleapis.com%2Fcss%3Ffamily%3DNoto%2BSans;fontSize=16;fillColor=#ffffff;align=center;" vertex="1" parent="1">
          <mxGeometry x="414" y="470" width="166" height="30" as="geometry" />
        </mxCell>
        <mxCell id="hj8D2mjoaMXsEgfOs6C1-31" style="edgeStyle=orthogonalEdgeStyle;rounded=0;orthogonalLoop=1;jettySize=auto;html=1;exitX=0.5;exitY=1;exitDx=0;exitDy=0;entryX=0.5;entryY=0;entryDx=0;entryDy=0;fontFamily=Noto Sans;fontSource=https%3A%2F%2Ffonts.googleapis.com%2Fcss%3Ffamily%3DNoto%2BSans;fontSize=16;strokeWidth=2;" edge="1" parent="1" source="hj8D2mjoaMXsEgfOs6C1-25" target="hj8D2mjoaMXsEgfOs6C1-26">
          <mxGeometry relative="1" as="geometry" />
        </mxCell>
        <mxCell id="hj8D2mjoaMXsEgfOs6C1-25" value="\(y=(u)^3\), where \(u=2x+4\)" style="rounded=0;whiteSpace=wrap;html=1;fontFamily=Noto Sans;fontSource=https%3A%2F%2Ffonts.googleapis.com%2Fcss%3Ffamily%3DNoto%2BSans;fontSize=16;fillColor=#ffffff;align=center;" vertex="1" parent="1">
          <mxGeometry x="414" y="520" width="166" height="60" as="geometry" />
        </mxCell>
        <mxCell id="hj8D2mjoaMXsEgfOs6C1-32" style="edgeStyle=orthogonalEdgeStyle;rounded=0;orthogonalLoop=1;jettySize=auto;html=1;exitX=0.5;exitY=1;exitDx=0;exitDy=0;entryX=0.5;entryY=0;entryDx=0;entryDy=0;fontFamily=Noto Sans;fontSource=https%3A%2F%2Ffonts.googleapis.com%2Fcss%3Ffamily%3DNoto%2BSans;fontSize=16;strokeWidth=2;" edge="1" parent="1" source="hj8D2mjoaMXsEgfOs6C1-26" target="hj8D2mjoaMXsEgfOs6C1-27">
          <mxGeometry relative="1" as="geometry" />
        </mxCell>
        <mxCell id="hj8D2mjoaMXsEgfOs6C1-26" value="\(\frac{dy}{du}=3(u)^2\) &lt;br&gt;and \(\frac{du}{dx}=2\)" style="rounded=0;whiteSpace=wrap;html=1;fontFamily=Noto Sans;fontSource=https%3A%2F%2Ffonts.googleapis.com%2Fcss%3Ffamily%3DNoto%2BSans;fontSize=16;fillColor=#ffffff;align=center;" vertex="1" parent="1">
          <mxGeometry x="414" y="600" width="166" height="70" as="geometry" />
        </mxCell>
        <mxCell id="hj8D2mjoaMXsEgfOs6C1-33" style="edgeStyle=orthogonalEdgeStyle;rounded=0;orthogonalLoop=1;jettySize=auto;html=1;exitX=0.5;exitY=1;exitDx=0;exitDy=0;entryX=0.5;entryY=0;entryDx=0;entryDy=0;fontFamily=Noto Sans;fontSource=https%3A%2F%2Ffonts.googleapis.com%2Fcss%3Ffamily%3DNoto%2BSans;fontSize=16;strokeWidth=2;" edge="1" parent="1" source="hj8D2mjoaMXsEgfOs6C1-27" target="hj8D2mjoaMXsEgfOs6C1-28">
          <mxGeometry relative="1" as="geometry" />
        </mxCell>
        <mxCell id="hj8D2mjoaMXsEgfOs6C1-27" value="\(\frac{dy}{dx}=3(u)^2\times 2\)" style="rounded=0;whiteSpace=wrap;html=1;fontFamily=Noto Sans;fontSource=https%3A%2F%2Ffonts.googleapis.com%2Fcss%3Ffamily%3DNoto%2BSans;fontSize=16;fillColor=#ffffff;align=center;" vertex="1" parent="1">
          <mxGeometry x="414" y="690" width="166" height="50" as="geometry" />
        </mxCell>
        <mxCell id="hj8D2mjoaMXsEgfOs6C1-34" style="edgeStyle=orthogonalEdgeStyle;rounded=0;orthogonalLoop=1;jettySize=auto;html=1;exitX=0.5;exitY=1;exitDx=0;exitDy=0;fontFamily=Noto Sans;fontSource=https%3A%2F%2Ffonts.googleapis.com%2Fcss%3Ffamily%3DNoto%2BSans;fontSize=16;strokeWidth=2;" edge="1" parent="1" source="hj8D2mjoaMXsEgfOs6C1-28" target="hj8D2mjoaMXsEgfOs6C1-29">
          <mxGeometry relative="1" as="geometry" />
        </mxCell>
        <mxCell id="hj8D2mjoaMXsEgfOs6C1-28" value="\(\frac{dy}{dx}=6(u)^2\)" style="rounded=0;whiteSpace=wrap;html=1;fontFamily=Noto Sans;fontSource=https%3A%2F%2Ffonts.googleapis.com%2Fcss%3Ffamily%3DNoto%2BSans;fontSize=16;fillColor=#ffffff;align=center;" vertex="1" parent="1">
          <mxGeometry x="414" y="760" width="166" height="50" as="geometry" />
        </mxCell>
        <mxCell id="hj8D2mjoaMXsEgfOs6C1-29" value="\(\frac{dy}{dx}=6(2x+4)^2\)" style="rounded=0;whiteSpace=wrap;html=1;fontFamily=Noto Sans;fontSource=https%3A%2F%2Ffonts.googleapis.com%2Fcss%3Ffamily%3DNoto%2BSans;fontSize=16;fillColor=#ffffff;align=center;" vertex="1" parent="1">
          <mxGeometry x="414" y="830" width="166" height="50" as="geometry" />
        </mxCell>
        <mxCell id="hj8D2mjoaMXsEgfOs6C1-35" value="Replace the bit in the brackets, or the denominator, with \(u\)" style="text;html=1;strokeColor=none;fillColor=none;align=right;verticalAlign=middle;whiteSpace=wrap;rounded=0;fontFamily=Noto Sans;fontSource=https%3A%2F%2Ffonts.googleapis.com%2Fcss%3Ffamily%3DNoto%2BSans;fontSize=16;" vertex="1" parent="1">
          <mxGeometry x="620" y="540" width="180" height="20" as="geometry" />
        </mxCell>
        <mxCell id="hj8D2mjoaMXsEgfOs6C1-36" value="Differentiate \(u\) and \(y\)" style="text;html=1;strokeColor=none;fillColor=none;align=right;verticalAlign=middle;whiteSpace=wrap;rounded=0;fontFamily=Noto Sans;fontSource=https%3A%2F%2Ffonts.googleapis.com%2Fcss%3Ffamily%3DNoto%2BSans;fontSize=16;" vertex="1" parent="1">
          <mxGeometry x="620" y="620" width="180" height="20" as="geometry" />
        </mxCell>
        <mxCell id="hj8D2mjoaMXsEgfOs6C1-37" value="Multiply \(\frac{dy}{dx}\) and \(\frac{du}{dx}\)" style="text;html=1;strokeColor=none;fillColor=none;align=right;verticalAlign=middle;whiteSpace=wrap;rounded=0;fontFamily=Noto Sans;fontSource=https%3A%2F%2Ffonts.googleapis.com%2Fcss%3Ffamily%3DNoto%2BSans;fontSize=16;" vertex="1" parent="1">
          <mxGeometry x="620" y="705" width="180" height="20" as="geometry" />
        </mxCell>
        <mxCell id="hj8D2mjoaMXsEgfOs6C1-38" value="Multiply" style="text;html=1;strokeColor=none;fillColor=none;align=right;verticalAlign=middle;whiteSpace=wrap;rounded=0;fontFamily=Noto Sans;fontSource=https%3A%2F%2Ffonts.googleapis.com%2Fcss%3Ffamily%3DNoto%2BSans;fontSize=16;" vertex="1" parent="1">
          <mxGeometry x="620" y="775" width="180" height="20" as="geometry" />
        </mxCell>
        <mxCell id="hj8D2mjoaMXsEgfOs6C1-39" value="Replace \(u\) with the original part" style="text;html=1;strokeColor=none;fillColor=none;align=right;verticalAlign=middle;whiteSpace=wrap;rounded=0;fontFamily=Noto Sans;fontSource=https%3A%2F%2Ffonts.googleapis.com%2Fcss%3Ffamily%3DNoto%2BSans;fontSize=16;" vertex="1" parent="1">
          <mxGeometry x="620" y="845" width="180" height="20" as="geometry" />
        </mxCell>
        <mxCell id="hj8D2mjoaMXsEgfOs6C1-41" value="" style="endArrow=none;html=1;fontFamily=Noto Sans;fontSource=https%3A%2F%2Ffonts.googleapis.com%2Fcss%3Ffamily%3DNoto%2BSans;fontSize=28;strokeWidth=4;" edge="1" parent="1">
          <mxGeometry width="50" height="50" relative="1" as="geometry">
            <mxPoint x="10" y="830" as="sourcePoint" />
            <mxPoint x="380" y="830" as="targetPoint" />
          </mxGeometry>
        </mxCell>
        <mxCell id="hj8D2mjoaMXsEgfOs6C1-42" value="Equation of a tangent" style="text;html=1;strokeColor=none;fillColor=none;align=left;verticalAlign=middle;whiteSpace=wrap;rounded=0;fontFamily=Noto Sans;fontSource=https%3A%2F%2Ffonts.googleapis.com%2Fcss%3Ffamily%3DNoto%2BSans;fontSize=28;" vertex="1" parent="1">
          <mxGeometry x="20" y="845" width="360" height="20" as="geometry" />
        </mxCell>
        <mxCell id="hj8D2mjoaMXsEgfOs6C1-43" value="" style="endArrow=none;html=1;fontFamily=Noto Sans;fontSource=https%3A%2F%2Ffonts.googleapis.com%2Fcss%3Ffamily%3DNoto%2BSans;fontSize=16;strokeWidth=2;" edge="1" parent="1">
          <mxGeometry width="50" height="50" relative="1" as="geometry">
            <mxPoint x="10" y="1150" as="sourcePoint" />
            <mxPoint x="10" y="830" as="targetPoint" />
          </mxGeometry>
        </mxCell>
        <mxCell id="hj8D2mjoaMXsEgfOs6C1-44" value="&lt;b&gt;a.&lt;/b&gt; differentiate equation of curve&lt;br&gt;&lt;b&gt;b.&lt;/b&gt; substitute \(x\) value into differentiated equation (for gradient)&lt;br&gt;&lt;div&gt;&lt;b&gt;c.&lt;/b&gt; substitute \(x\) value into original equation (for \(y\)-coordinate)&lt;/div&gt;&lt;div&gt;&lt;b&gt;d.&lt;/b&gt; substitute the point on the line and gradient into \(y-b=m(x-a)\)&lt;/div&gt;" style="text;html=1;strokeColor=none;fillColor=none;align=left;verticalAlign=middle;whiteSpace=wrap;rounded=0;fontFamily=Noto Sans;fontSource=https%3A%2F%2Ffonts.googleapis.com%2Fcss%3Ffamily%3DNoto%2BSans;fontSize=16;" vertex="1" parent="1">
          <mxGeometry x="20" y="880" width="340" height="150" as="geometry" />
        </mxCell>
        <mxCell id="hj8D2mjoaMXsEgfOs6C1-45" value="" style="shape=image;verticalLabelPosition=bottom;labelBackgroundColor=#ffffff;verticalAlign=top;aspect=fixed;imageAspect=0;image=data:image/svg+xml,PHN2ZyB4bWxucz0iaHR0cDovL3d3dy53My5vcmcvMjAwMC9zdmciIHZpZXdCb3g9IjEgMSAzMyAzMyIgd2lkdGg9IjMzIiBoZWlnaHQ9IjMzIj48cGF0aCBkPSJNMSAxaDd2N2gtN3pNMTIgMWgxdjFoLTF6TTE3IDFoMXYxaC0xek0yMCAxaDN2MmgxdjFoLTF2MWgtMXYtMmgtMXYtMWgtMXpNMjQgMWgxdjFoLTF6TTI3IDFoN3Y3aC03ek0yIDJ2NWg1di01ek0xMCAyaDF2MWgtMXpNMTYgMmgxdjFoMXYxaC0xdjFoMXYxaC00djNoMXYtMmgxdjNoLTF2MWgydi0xaDF2LTFoMXYxaDF2LTFoLTF2LTJoMXYxaDF2LTFoMXYxaDF2LTNoMXYxaDJ2MmgtMXYtMWgtMXYxaDF2MWgxdjFoLTF2MWgtMXYtMWgtMXYtMWgtMnYxaDF2M2gydi0xaDF2MWgxdi0xaDF2MmgxdjJoNHYxaC0ydjFoLTF2MWgxdjFoMXYtMWgtMXYtMWgydjFoMXYxaC0xdjFoLTF2MWgxdjFoMXYxaDF2M2gtMXYtMmgtM3YtM2gtMnYtM2gtMXYtMWgxdi0xaC0xdjFoLTF2MWgtMnYtM2gxdjFoMXYtMWgtMXYtMmgtMnYxaDF2MWgtMXYxaC0xdi0xaC0xdi0xaDF2LTFoLTJ2LTFoMXYtMmgtMnYxaDF2MWgtMnYxaC0xdi0xaC0xdi0xaC0xdjFoLTF2LTJoLTF2MWgtMXYtMWgtMXYtMWgydi0xaC0xdi0xaDF2LTJoLTF2LTJoMXYxaDN2LTFoLTF2LTFoMXpNMTkgMmgxdjFoLTF6TTI4IDJ2NWg1di01ek0zIDNoM3YzaC0zek05IDNoMXYzaDJ2MmgtMXYtMWgtMXYxaDF2MmgtMXYtMWgtMXpNMTEgM2gxdjFoLTF6TTI1IDNoMXYyaC0ydi0xaDF6TTI5IDNoM3YzaC0zek0xOSA0aDF2MWgtMXpNMjEgNWgxdjFoLTF6TTIwIDZoMXYxaC0xek0xNyA3aDF2MmgtMXpNMSA5aDF2MWgxdjFoMXYxaC0ydi0xaC0xek0zIDloNXYxaC0xdjFoLTF2LTFoLTF2MWgtMXYtMWgtMXpNMjcgOWg1djFoMnYxaC0xdjNoMXYxaC0xdjFoLTF2LTFoLTF2LTFoMXYtMWgtMXYxaC0zdi0xaDF2LTJoMXYxaDF2LTFoLTF2LTFoLTF2MWgtMnpNOCAxMGgxdjFoLTF6TTcgMTFoMXYxaC0xek05IDExaDF2NGgtMnYtMWgxdi0xaC0xdi0xaDF6TTIzIDExaDF2MWgtMXpNMjUgMTFoMXYxaC0xek0xIDEyaDF2NWgzdjFoMXYyaC0xdi0xaC0xdi0xaC0xdjFoLTF2LTFoLTF6TTQgMTJoMXYxaC0xek0xMSAxMmgxdjFoLTF6TTMgMTNoMXYxaC0xek03IDEzaDF2MWgtMXpNMTMgMTNoMXYxaC0xek0xNSAxM2gxdjFoLTF6TTQgMTRoMXYxaDF2MWgtM3YtMWgxek0xNCAxNGgxdjFoLTF6TTE2IDE0aDF2MWgxdjFoLTF2MmgtMXYtMWgtMnYtMWgyek0xOCAxNGgydjNoLTF2LTJoLTF6TTcgMTVoMXYxaC0xek0xMSAxNWgzdjFoLTN6TTYgMTZoMXYxaDF2MWgtMnpNOSAxNmgxdjFoLTF6TTExIDE3aDN2M2gxdjFoMnYxaDF2MWgtMnYtMWgtMXYyaDF2MWgtMnYtMWgtMXYxaC0xdi0xaC0xdjFoMXYxaDF2LTFoMXYyaC0zdjNoLTF2MmgtMXYtNGgxdi0xaC0xdi0xaDF2LTFoLTF2LTFoMXYtMWgydi0xaDF2MWgxdi0xaC0xdi0xaC0xdjFoLTF2LTFoLTJ2LTFoLTJ2LTFoMXYtMWgxdjFoMnYxaDF2LTFoMXYtMWgtMnpNMTggMTdoMXYxaC0xek0zMyAxN2gxdjJoLTF6TTE1IDE4aDF2MWgtMXpNMjAgMThoM3YyaDF2MWgtMXYxaC0xdi0xaC0xdjFoLTJ2LTFoMXYtMWgxdi0xaC0xek0xIDE5aDF2MmgtMXpNMTYgMTloMnYyaC0xdi0xaC0xek0xOSAxOWgxdjFoLTF6TTI2IDE5aDF2MWgtMXpNMyAyMGgxdjFoLTF6TTYgMjBoMXYxaC0xek0zMyAyMGgxdjFoLTF6TTIgMjFoMXYxaC0xek00IDIxaDF2MmgtMXpNNyAyMWgydjFoLTJ6TTI1IDIxaDJ2MWgtMnpNMzIgMjFoMXYxaC0xek0xIDIyaDF2NGgtMXpNNiAyMmgxdjFoLTF6TTIxIDIyaDF2MWgtMXpNMjMgMjJoMnYxaC0xdjFoLTF6TTI3IDIyaDF2MWgtMXpNMzMgMjJoMXYxaC0xek03IDIzaDF2MWgtMXpNMTggMjNoM3YxaDJ2MWgtMnYyaC0ydjFoMXYxaC0ydi0xaC00di0xaDF2LTFoMXYxaDF2LTFoMXYtMWgydi0xaC0yek0yNiAyM2gxdjJoM3YzaDF2LTJoMXYxaDF2MWgtMXYxaC0xdjJoLTJ2LTFoLTJ2MWgtMXYxaC0zdjFoLTF2LTFoLTF2LTFoNHYtMmgtMXYtMWgtMXYtMWgxdi0xaC0xdi0xaDF2LTFoMXYxaDF6TTI4IDIzaDF2MWgtMXpNMyAyNGgxdjFoLTF6TTYgMjRoMXYxaC0xek0xNyAyNGgxdjFoLTF6TTQgMjVoMnYxaC0yek03IDI1aDF2MWgtMXpNMjYgMjZ2M2gzdi0zek0xIDI3aDd2N2gtN3pNMjEgMjdoMXYxaC0xek0yNyAyN2gxdjFoLTF6TTIgMjh2NWg1di01ek0xMiAyOGgydjFoLTF2MWgxdi0xaDF2MWgxdi0xaDJ2MWgtMXYxaDF2LTFoMnYxaC0xdjFoLTJ2MmgtMXYtMmgtM3YtMWgtMXpNMzMgMjhoMXYxaC0xek0zIDI5aDN2M2gtM3pNMjAgMjloNHYxaC00ek0zMiAyOWgxdjFoLTF6TTMzIDMwaDF2MWgtMXpNMTEgMzFoMXYxaDF2MWgtMXYxaC0zdi0xaDJ6TTI3IDMxaDJ2MWgtMXYxaC0xek0yOSAzMmgzdjFoLTF2MWgtMXYtMWgtMXpNMTQgMzNoMXYxaC0xek0xOCAzM2gydjFoLTJ6TTIzIDMzaDR2MWgtNHpNMjggMzNoMXYxaC0xek0zMiAzM2gxdjFoLTF6Ii8+PC9zdmc+;" vertex="1" parent="1">
          <mxGeometry x="730" y="1070" width="83" height="83" as="geometry" />
        </mxCell>
        <mxCell id="hj8D2mjoaMXsEgfOs6C1-47" value="practice questions, videos, ..." style="text;html=1;strokeColor=none;fillColor=none;align=center;verticalAlign=middle;whiteSpace=wrap;rounded=0;fontFamily=Noto Sans;fontSource=https%3A%2F%2Ffonts.googleapis.com%2Fcss%3Ffamily%3DNoto%2BSans;fontSize=16;rotation=-90;" vertex="1" parent="1">
          <mxGeometry x="660" y="1101.5" width="70" height="20" as="geometry" />
        </mxCell>
      </root>
    </mxGraphModel>
  </diagram>
</mxfile>
